<svg width="216" height="86" viewBox="0 0 216 86" fill="none" xmlns="http://www.w3.org/2000/svg">
<path d="M2.55469 75V41.1797H11.1562V68.0859H25.1484V75H2.55469ZM40.6172 75.5391C37.9297 75.5391 35.6094 75.0156 33.6562 73.9688C31.7031 72.9219 30.1953 71.4062 29.1328 69.4219C28.0859 67.4375 27.5625 65.0469 27.5625 62.25V62.2031C27.5625 59.4531 28.1016 57.0859 29.1797 55.1016C30.2578 53.1016 31.7734 51.5781 33.7266 50.5312C35.6797 49.4688 37.9766 48.9375 40.6172 48.9375C43.2734 48.9375 45.5781 49.4688 47.5312 50.5312C49.4844 51.5781 51 53.0938 52.0781 55.0781C53.1562 57.0469 53.6953 59.4219 53.6953 62.2031V62.25C53.6953 65.0625 53.1641 67.4609 52.1016 69.4453C51.0391 71.4297 49.5312 72.9453 47.5781 73.9922C45.6406 75.0234 43.3203 75.5391 40.6172 75.5391ZM40.6406 69.2344C41.5938 69.2344 42.4141 68.9688 43.1016 68.4375C43.7891 67.8906 44.3125 67.0938 44.6719 66.0469C45.0469 65 45.2344 63.7344 45.2344 62.25V62.2031C45.2344 60.7344 45.0391 59.4844 44.6484 58.4531C44.2734 57.4062 43.7422 56.6094 43.0547 56.0625C42.3672 55.5156 41.5547 55.2422 40.6172 55.2422C39.6953 55.2422 38.8828 55.5156 38.1797 56.0625C37.4922 56.6094 36.9531 57.4062 36.5625 58.4531C36.1875 59.4844 36 60.7344 36 62.2031V62.25C36 63.7344 36.1875 65 36.5625 66.0469C36.9375 67.0938 37.4688 67.8906 38.1562 68.4375C38.8594 68.9688 39.6875 69.2344 40.6406 69.2344ZM64.5938 75.3516C62.8906 75.3516 61.3906 75.0234 60.0938 74.3672C58.7969 73.6953 57.7812 72.7812 57.0469 71.625C56.3281 70.4531 55.9688 69.125 55.9688 67.6406V67.6172C55.9688 66.0078 56.3672 64.6406 57.1641 63.5156C57.9766 62.3906 59.1484 61.5078 60.6797 60.8672C62.2109 60.2109 64.0703 59.8125 66.2578 59.6719L76.4766 59.0156V63.8438L67.5938 64.4531C66.4375 64.5156 65.5703 64.7812 64.9922 65.25C64.4141 65.7031 64.125 66.3125 64.125 67.0781V67.1016C64.125 67.8984 64.4297 68.5156 65.0391 68.9531C65.6641 69.375 66.4844 69.5859 67.5 69.5859C68.3906 69.5859 69.1719 69.4297 69.8438 69.1172C70.5312 68.7891 71.0703 68.3438 71.4609 67.7812C71.8672 67.2031 72.0703 66.5625 72.0703 65.8594V58.0312C72.0703 57.1094 71.7734 56.3828 71.1797 55.8516C70.5859 55.3047 69.7188 55.0312 68.5781 55.0312C67.4531 55.0312 66.5703 55.2578 65.9297 55.7109C65.2891 56.1641 64.8984 56.7188 64.7578 57.375L64.7109 57.6094H57.2109L57.2344 57.3047C57.375 55.6328 57.9219 54.1719 58.875 52.9219C59.8281 51.6719 61.1562 50.6953 62.8594 49.9922C64.5781 49.2891 66.625 48.9375 69 48.9375C71.2812 48.9375 73.2734 49.2969 74.9766 50.0156C76.6953 50.7344 78.0234 51.7422 78.9609 53.0391C79.9141 54.3359 80.3906 55.8438 80.3906 57.5625V75H72.0703V71.3906H71.9062C71.4219 72.2188 70.8203 72.9297 70.1016 73.5234C69.3828 74.1172 68.5625 74.5703 67.6406 74.8828C66.7188 75.1953 65.7031 75.3516 64.5938 75.3516ZM93.75 75.5391C91.625 75.5391 89.7969 75.0156 88.2656 73.9688C86.75 72.9219 85.5859 71.4062 84.7734 69.4219C83.9766 67.4375 83.5781 65.0391 83.5781 62.2266V62.2031C83.5781 59.3906 83.9766 57 84.7734 55.0312C85.5859 53.0469 86.75 51.5391 88.2656 50.5078C89.7969 49.4609 91.625 48.9375 93.75 48.9375C94.9688 48.9375 96.0781 49.1406 97.0781 49.5469C98.0938 49.9375 98.9688 50.5156 99.7031 51.2812C100.453 52.0312 101.047 52.9375 101.484 54H101.648V41.1797H109.969V75H101.648V70.6406H101.484C101.062 71.6719 100.477 72.5547 99.7266 73.2891C98.9922 74.0078 98.1172 74.5625 97.1016 74.9531C96.0859 75.3438 94.9688 75.5391 93.75 75.5391ZM96.8203 68.7656C97.7891 68.7656 98.6328 68.5078 99.3516 67.9922C100.086 67.4609 100.648 66.7109 101.039 65.7422C101.445 64.7578 101.648 63.5938 101.648 62.25V62.2266C101.648 60.8672 101.445 59.7031 101.039 58.7344C100.633 57.7656 100.07 57.0234 99.3516 56.5078C98.6328 55.9766 97.7891 55.7109 96.8203 55.7109C95.8516 55.7109 95.0078 55.9688 94.2891 56.4844C93.5703 57 93.0078 57.75 92.6016 58.7344C92.2109 59.7031 92.0156 60.8594 92.0156 62.2031V62.2266C92.0156 63.5859 92.2109 64.75 92.6016 65.7188C92.9922 66.6875 93.5469 67.4375 94.2656 67.9688C95 68.5 95.8516 68.7656 96.8203 68.7656ZM117.422 62.9297V59.1797H126.281C128.703 59.1797 130.578 58.5547 131.906 57.3047C133.234 56.0391 133.898 54.2969 133.898 52.0781V52.0312C133.898 49.7969 133.234 48.0547 131.906 46.8047C130.578 45.5547 128.703 44.9297 126.281 44.9297H117.422V41.1797H127.359C129.484 41.1797 131.359 41.6328 132.984 42.5391C134.609 43.4453 135.883 44.7109 136.805 46.3359C137.742 47.9609 138.211 49.8438 138.211 51.9844V52.0312C138.211 54.1719 137.742 56.0625 136.805 57.7031C135.883 59.3438 134.609 60.625 132.984 61.5469C131.359 62.4688 129.484 62.9297 127.359 62.9297H117.422ZM115.312 75V41.1797H119.531V75H115.312ZM142.688 75V50.625H146.766V75H142.688ZM144.727 46.5C144.023 46.5 143.422 46.25 142.922 45.75C142.422 45.25 142.172 44.6484 142.172 43.9453C142.172 43.2266 142.422 42.625 142.922 42.1406C143.422 41.6406 144.023 41.3906 144.727 41.3906C145.445 41.3906 146.047 41.6406 146.531 42.1406C147.031 42.625 147.281 43.2266 147.281 43.9453C147.281 44.6484 147.031 45.25 146.531 45.75C146.047 46.25 145.445 46.5 144.727 46.5ZM152.32 83.2031V50.625H156.398V54.75H156.492C157.008 53.7969 157.641 52.9844 158.391 52.3125C159.156 51.625 160.031 51.0938 161.016 50.7188C162 50.3438 163.07 50.1562 164.227 50.1562C166.305 50.1562 168.117 50.6797 169.664 51.7266C171.227 52.7578 172.438 54.2266 173.297 56.1328C174.156 58.0234 174.586 60.25 174.586 62.8125V62.8359C174.586 65.3984 174.148 67.625 173.273 69.5156C172.414 71.4062 171.211 72.875 169.664 73.9219C168.133 74.9531 166.344 75.4688 164.297 75.4688C163.156 75.4688 162.086 75.2891 161.086 74.9297C160.086 74.5547 159.195 74.0312 158.414 73.3594C157.648 72.6719 157.008 71.8594 156.492 70.9219H156.398V83.2031H152.32ZM163.43 71.8594C164.867 71.8594 166.109 71.4922 167.156 70.7578C168.203 70.0234 169.008 68.9844 169.57 67.6406C170.133 66.2812 170.414 64.6797 170.414 62.8359V62.8125C170.414 60.9375 170.133 59.3281 169.57 57.9844C169.008 56.625 168.203 55.5859 167.156 54.8672C166.109 54.1328 164.867 53.7656 163.43 53.7656C162.055 53.7656 160.836 54.1406 159.773 54.8906C158.711 55.6406 157.875 56.6953 157.266 58.0547C156.672 59.3984 156.375 60.9844 156.375 62.8125V62.8359C156.375 64.6484 156.68 66.2344 157.289 67.5938C157.898 68.9375 158.727 69.9844 159.773 70.7344C160.836 71.4844 162.055 71.8594 163.43 71.8594ZM188.742 75.4688C186.414 75.4688 184.406 74.9531 182.719 73.9219C181.047 72.8906 179.758 71.4375 178.852 69.5625C177.961 67.6719 177.516 65.4531 177.516 62.9062V62.8828C177.516 60.3672 177.969 58.1562 178.875 56.25C179.781 54.3281 181.055 52.8359 182.695 51.7734C184.336 50.6953 186.266 50.1562 188.484 50.1562C190.703 50.1562 192.609 50.6719 194.203 51.7031C195.812 52.7188 197.047 54.1484 197.906 55.9922C198.766 57.8359 199.195 59.9766 199.195 62.4141V63.9141H179.555V60.7266H197.18L195.117 63.6797V62.1094C195.117 60.2188 194.828 58.6562 194.25 57.4219C193.688 56.1875 192.906 55.2734 191.906 54.6797C190.906 54.0703 189.758 53.7656 188.461 53.7656C187.164 53.7656 186 54.0859 184.969 54.7266C183.938 55.3516 183.125 56.2891 182.531 57.5391C181.938 58.7734 181.641 60.2969 181.641 62.1094V63.6797C181.641 65.3984 181.93 66.8672 182.508 68.0859C183.102 69.3047 183.938 70.2422 185.016 70.8984C186.094 71.5391 187.367 71.8594 188.836 71.8594C189.867 71.8594 190.789 71.7031 191.602 71.3906C192.414 71.0781 193.094 70.6484 193.641 70.1016C194.188 69.5547 194.578 68.9297 194.812 68.2266L194.883 68.0156H198.891L198.844 68.25C198.641 69.25 198.25 70.1875 197.672 71.0625C197.109 71.9375 196.383 72.7109 195.492 73.3828C194.602 74.0391 193.586 74.5547 192.445 74.9297C191.305 75.2891 190.07 75.4688 188.742 75.4688Z" fill="black"/>
<path d="M205 70.96V70H209.26V70.96H207.7V75.2H206.56V70.96H205Z" fill="#231F20"/>
<path d="M211.47 70L212.69 73.57H212.7L213.85 70H215.46V75.2H214.39V71.52H214.38L213.11 75.2H212.23L210.96 71.55H210.95V75.2H209.88V70H211.49H211.47Z" fill="#231F20"/>
<path d="M59.9771 19.1162C74.9171 10.7262 96.8872 2.42618 123.457 4.51618C124.787 4.62618 125.937 3.80618 126.217 2.56618L126.367 1.90618C126.847 -0.193816 129.537 -0.673816 131.057 1.04618L142.787 14.2962C144.037 15.7062 143.677 17.9062 142.077 18.6062L125.797 25.7462C123.607 26.7062 121.207 24.7062 121.737 22.3562C122.127 20.6262 120.887 18.9062 119.077 18.7062C112.017 17.9062 93.2771 17.0662 63.4171 25.3262C58.7471 26.6162 55.8571 21.4362 59.9771 19.1262V19.1162Z" fill="#005CDC"/>
</svg>
